<?xml version="1.0" encoding="UTF-8"?>
<svg id="Ebene_2" data-name="Ebene 2" xmlns="http://www.w3.org/2000/svg" viewBox="0 0 2001 2001">
  <defs>
    <style>
      .cls-1 {
        fill: none;
        stroke: #fff;
        stroke-miterlimit: 10;
      }
    </style>
  </defs>
  <rect class="cls-1" x="572.21" y="170.56" width="798.53" height="700.94" rx="22.18" ry="22.18"/>
  <path class="cls-1" d="M570.52,883c.17-252.74,.34-505.48,.51-758.23"/>
  <path class="cls-1" d="M572.29,137.67c-.59,252.85-1.19,505.69-1.78,758.54"/>
  <path class="cls-1" d="M569.76,901.66c-1-252.92-2.01-505.84-3.01-758.76"/>
  <path class="cls-1" d="M1378.4,163.12c-270.52,.71-541.05,1.42-811.57,2.14"/>
  <path class="cls-1" d="M553.64,162.16c276.52,1.92,553.03,3.84,829.55,5.76"/>
  <path class="cls-1" d="M1384.86,161.1c-274.85,3.25-549.69,6.5-824.54,9.76"/>
  <path class="cls-1" d="M1374.24,878.58c-.17-242.98-.34-485.96-.51-728.94"/>
  <path class="cls-1" d="M1372.52,134.5c-.26,252.26-.53,504.52-.79,756.78"/>
  <path class="cls-1" d="M1374.46,892.89c.47-244.77,.93-489.54,1.4-734.3"/>
  <path class="cls-1" d="M1373.13,874.15c-270.52,.64-541.05,1.28-811.57,1.92"/>
  <path class="cls-1" d="M548.46,872.45c276.52,1.92,553.03,3.84,829.55,5.76"/>
  <path class="cls-1" d="M1388.4,873.06c-277.65,.02-555.31,.05-832.96,.07"/>
  <path class="cls-1" d="M566.2,111.09V906.45"/>
  <path class="cls-1" d="M1377.46,144.93V900.17"/>
  <path class="cls-1" d="M1382.01,166.35c-274.79,.58-549.59,1.15-824.38,1.73"/>
  <path class="cls-1" d="M1379.15,876.1H550"/>
</svg>